# xmcd
#
# Track frame offsets:
#	150
#	14787
#	29995
#	46483
#	58391
#	73047
#	85176
#	96089
#	108826
#	120093
#	138535
#	150619
#	168023
#	180182
#	197231
#	208634
#	220547
#	236194
#
# Disc length: 3308 seconds
#
# Revision: 0
# Processed by: cddbd v1.5.2PL0 Copyright (c) Steve Scherf et al.
# Submitted via: EasyCDDAExtractor 10.0.2.1
#
DISCID=fd0cea12
DTITLE=Die Flippers - Reise ins Glück
DYEAR=2003
DGENRE=World
TTITLE0=Arrivederci, Ciao, Amor
TTITLE1=Reise ins Glück
TTITLE2=Ich werde Dich im Leben nicht vergessen
TTITLE3=Spiel nicht mit dem Feuer
TTITLE4=Liebst Du mich noch so wie früher
TTITLE5=Hello Josephine
TTITLE6=Guitar Man
TTITLE7=Hey wenn die Sonne scheint
TTITLE8=Rosalie
TTITLE9=Donna Mexicana
TTITLE10=Der Wind hinter mir
TTITLE11=Jackie
TTITLE12=Rock N Roll
TTITLE13=Angelika
TTITLE14=Heut ruft mein Herz nur nach Dir
TTITLE15=Rote Rosen in blauer Nacht
TTITLE16=St. Tropez
TTITLE17=Weine nicht kleine Eva
EXTD=
EXTT0=
EXTT1=
EXTT2=
EXTT3=
EXTT4=
EXTT5=
EXTT6=
EXTT7=
EXTT8=
EXTT9=
EXTT10=
EXTT11=
EXTT12=
EXTT13=
EXTT14=
EXTT15=
EXTT16=
EXTT17=
PLAYORDER=
